<svg xmlns="http://www.w3.org/2000/svg" viewBox="0 0 600 600"><defs><style>.cls-1{fill:#fff;}</style></defs><g id="Layer_2" data-name="Layer 2"><rect x="-11.77" y="-11.77" width="623.54" height="623.54"/></g><g id="Layer_1" data-name="Layer 1"><path class="cls-1" d="M271.31,313.1l-20.36-56H121.06a1.81,1.81,0,0,0-1.69,1.19L99.88,311.87a1.81,1.81,0,0,0,1.7,2.42h10.21a3.58,3.58,0,0,0,2.55-1.06l40.75-40.75a3.63,3.63,0,0,1,2.55-1.05h25.81a1.81,1.81,0,0,1,1.7,1.18l14.73,40.49a1.82,1.82,0,0,0,1.7,1.19h45.09a1.81,1.81,0,0,1,1.7,1.18l30.33,83.34a1.8,1.8,0,0,0,1.69,1.19H348a1.8,1.8,0,0,0,1.69-2.42l-29.89-82.11a1.78,1.78,0,0,0-1.69-1.18H273A1.82,1.82,0,0,1,271.31,313.1Z"/><path class="cls-1" d="M271.31,201.19,251,257.14h12.79a3.64,3.64,0,0,0,2.55-1.05L307,215.34a3.64,3.64,0,0,1,2.55-1.05H335.4a1.79,1.79,0,0,1,1.69,1.18l25.14,69.06a1.79,1.79,0,0,0,1.69,1.18h33.2a1.8,1.8,0,0,1,1.69,1.19l30.33,83.32a1.79,1.79,0,0,0,1.69,1.18h67.59a1.8,1.8,0,0,0,1.7-2.41l-29.89-82.11a1.79,1.79,0,0,0-1.69-1.19h-33.2a1.78,1.78,0,0,1-1.69-1.19l-30.33-83.31a1.8,1.8,0,0,0-1.69-1.19H273A1.8,1.8,0,0,0,271.31,201.19Z"/></g></svg>